# xmcd
#
# Track frame offsets: 
#        300
#        13800
#        32169
#        43266
#        56988
#        67484
#        77605
#        96126
#        114419
#        126791
#        139612
#        152395
#        171132
#        204311
#        228189
#        241760
#        262991
#        288219
#        325329
#
# Disc length: 4750 seconds
#
# Revision: 0
# Processed by: cddbd v1.5.2PL0 Copyright (c) Steve Scherf et al.
# Submitted via: ExactAudioCopy v1.0b1
#
DISCID=07128a13
DTITLE=Albert Collins - Frigorific CD1
DYEAR=2001
DGENRE=Texas Blues
TTITLE0=Icy Blue
TTITLE1=Do The Sissy
TTITLE2=Collins' Mix
TTITLE3=Ain't Got Time
TTITLE4=Harris County Line-Up
TTITLE5=Jawing
TTITLE6=Trash Talkin'
TTITLE7=Medley
TTITLE8=And Then It Started Raining
TTITLE9=Do What You Want To Do
TTITLE10=69 Underpass Roadside Inn
TTITLE11=There's Gotta Be a Change
TTITLE12=In Love Wit'cha
TTITLE13=Cold Cold Feeling
TTITLE14=Too Tired
TTITLE15=Frosty [live]
TTITLE16=Don't Lose Your Cool [live]
TTITLE17=Angel Of Mercy [live]
TTITLE18=All About My Girl [live]
EXTD=
EXTT0=
EXTT1=
EXTT2=
EXTT3=
EXTT4=
EXTT5=
EXTT6=
EXTT7=
EXTT8=
EXTT9=
EXTT10=
EXTT11=
EXTT12=
EXTT13=
EXTT14=
EXTT15=
EXTT16=
EXTT17=
EXTT18=
PLAYORDER=
